<svg width="250" height="250" viewBox="0 0 250 250" fill="none" xmlns="http://www.w3.org/2000/svg">
<rect width="250" height="250" rx="20" fill="black"/>
<path d="M164.987 124.211H194L193.986 126.011L162.281 126.08C150.072 126.108 133.296 129.763 122.413 135.413C119.876 136.742 117.38 138.099 115.322 140.121L98.1655 157C97.6862 156.612 97.2492 156.169 96.8121 155.712L113.687 139.082C114.674 138.113 115.393 136.977 115.886 135.759C116.534 134.139 116.14 132.477 114.956 131.203C111.629 127.645 107.498 126.759 99.3356 126.219C98.1373 126.149 97.0941 126.039 95.8676 126.039H56V124.225L95.8958 124.141C108.527 124.114 125.684 120.347 136.849 114.31C139.245 113.009 141.501 111.61 143.447 109.699L160.194 93.1939L162.45 93L144.969 110.779C142.742 112.953 140.796 116.221 143.277 118.977C145.674 121.621 150.284 122.812 153.766 123.421C157.502 124.086 161.139 124.211 164.987 124.211Z" fill="#FFFEEF"/>
</svg>
